<svg width="17" height="17" viewBox="0 0 17 17" fill="none" xmlns="http://www.w3.org/2000/svg">
<path d="M0 13.23V11.583C0 11.1704 0.12 10.7844 0.36 10.425C0.600667 10.065 0.924 9.78569 1.33 9.58703C2.274 9.13436 3.21867 8.79503 4.164 8.56903C5.10867 8.34236 6.054 8.22903 7 8.22903C7.44867 8.22903 7.89733 8.25603 8.346 8.31003C8.79467 8.36403 9.24333 8.44503 9.692 8.55303V9.55803C9.24333 9.44003 8.79467 9.35569 8.346 9.30503C7.89733 9.25503 7.44867 9.23003 7 9.23003C6.11 9.23003 5.228 9.33603 4.354 9.54803C3.48 9.76003 2.63133 10.0654 1.808 10.464C1.55467 10.5987 1.357 10.7634 1.215 10.958C1.07167 11.1534 1 11.362 1 11.584V12.231H9.692V13.231L0 13.23ZM7 5.99903C6.17533 5.99903 5.469 5.70503 4.881 5.11703C4.293 4.52903 3.99933 3.82303 4 2.99903C4.00067 2.17503 4.29433 1.46836 4.881 0.879028C5.46767 0.289694 6.174 -0.00330521 7 2.81215e-05C7.826 0.00336145 8.53233 0.296694 9.119 0.880028C9.70567 1.46336 9.99933 2.17003 10 3.00003C10.0007 3.83003 9.707 4.53603 9.119 5.11803C8.531 5.70003 7.82467 5.99303 7 5.99903ZM7 5.00003C7.55 5.00003 8.021 4.80403 8.413 4.41203C8.805 4.02003 9.00067 3.54903 9 2.99903C8.99933 2.44903 8.80367 1.97803 8.413 1.58603C8.02233 1.19403 7.55133 0.998362 7 0.999028C6.44867 0.999695 5.978 1.19536 5.588 1.58603C5.198 1.97669 5.002 2.44769 5 2.99903C4.998 3.55036 5.194 4.02103 5.588 4.41103C5.982 4.80103 6.45267 4.99803 7 5.00003ZM13.5 16.729V12.922H12.077V8.11403H16.192L14.366 11.73H16.135L13.5 16.729Z" fill="#9333EA"/>
</svg>
