<svg width="34" height="40" viewBox="0 0 34 40" fill="none" xmlns="http://www.w3.org/2000/svg">
<path d="M2.24844 39.25C1.94402 39.25 1.64419 39.1351 1.32877 38.8197C1.01334 38.5042 0.898438 38.2044 0.898438 37.9V32.65C0.898438 29.8197 1.77407 27.3371 3.53078 25.1726C4.57995 23.8799 5.80444 22.8685 7.21005 22.136C6.9032 22.5587 6.62723 23.0064 6.38245 23.4791C5.5925 25.0044 5.19844 26.6484 5.19844 28.4V37.9C5.19844 38.3357 5.25797 38.7687 5.37486 39.1973C5.37967 39.2149 5.38459 39.2325 5.38965 39.25H2.24844ZM9.59844 39.25C9.23901 39.25 8.93611 39.127 8.65477 38.8457C8.37367 38.5646 8.24953 38.2608 8.24844 37.8993V28.4C8.24844 26.2659 8.99443 24.4748 10.502 22.9831C12.0115 21.4894 13.813 20.75 15.9484 20.75H25.3984C27.5351 20.75 29.327 21.4892 30.8181 22.9803C32.3092 24.4714 33.0484 26.2633 33.0484 28.4V31.6C33.0484 33.7367 32.3092 35.5286 30.8181 37.0197C29.327 38.5107 27.5351 39.25 25.3984 39.25H9.59844ZM16.9984 15.05C14.9941 15.05 13.3192 14.3601 11.9288 12.9697C10.5384 11.5793 9.84844 9.90434 9.84844 7.9C9.84844 5.89566 10.5384 4.22073 11.9288 2.83033C13.3192 1.43993 14.9941 0.75 16.9984 0.75C19.0028 0.75 20.6777 1.43993 22.0681 2.83033C23.4585 4.22073 24.1484 5.89566 24.1484 7.9C24.1484 9.90434 23.4585 11.5793 22.0681 12.9697C20.6777 14.3601 19.0028 15.05 16.9984 15.05Z" stroke="#9A9A9A" stroke-width="1.5"/>
</svg>
